# xmcd CD database file
#
# Track frame offsets:
#	150
#	41270
#	52165
#	74987
#	95955
#	113604
#	128554
#	148928
#	172973
#	195220
#	219461
#
# Disc length: 3313 seconds
#
# Revision: 0
# Processed by: cddbd v1.5.2PL0 Copyright (c) Steve Scherf et al.
# Submitted via: CDex 1.51
#
DISCID=a50cef0b
DTITLE=Various Artist - Jazziz Fall Into Jazz - Disc 1
DYEAR=2019
DGENRE=Jazz
TTITLE0=Chick Corea - Antidote
TTITLE1=Jazzmeia Horn - When I Say
TTITLE2=New York Voices - It's Alright With Me
TTITLE3=Judy Wexler - Circus Life
TTITLE4=Maggie Herron - I'm Beginning To See The Light
TTITLE5=Patrice Jégou feat. Mark Kibble and Alvin Chea - Lover Come Back To Me
TTITLE6=Daniela Soledade - Song for Baden
TTITLE7=Beata Pater - Little Sunflower
TTITLE8=Yamit and The Vinyl Blvd - Summertime
TTITLE9=John Minnock - Skylark
TTITLE10=Terri Lyne Carrington feat. Malcolm-Jamal Warner and Debo Ray - Bells (Ring Loudly)
EXTD=YEAR: 2019
EXTT0=
EXTT1=
EXTT2=
EXTT3=
EXTT4=
EXTT5=
EXTT6=
EXTT7=
EXTT8=
EXTT9=
EXTT10=
PLAYORDER=
